PathFileType	4	(X/Y/Z)	OpenSim_Sub07_CSBaseline_Gyro.trc
DataRate	CameraRate	NumFrames	NumMarkers	Units	OrigDataRate	OrigDataStartFrame	OrigNumFrames
100	100	23	8	m	100	2921	7788
Frame#	Time	torso_imu_offset_imu	pelvis_imu_offset_imu	tibia_r_imu_offset_imu	femur_r_imu_offset_imu	tibia_l_imu_offset_imu	femur_l_imu_offset_imu	toes_r_imu_offset_imu	toes_l_imu_offset_imu
				X1	Y1	Z1	X2	Y2	Z2	X3	Y3	Z3	X4	Y4	Z4	X5	Y5	Z5	X6	Y6	Z6	X7	Y7	Z7	X8		Y8	Z8	

2921	29.20000000	-0.43570622	0.04899076	0.14035807	0.41724883	0.00928494	0.23669637	-0.26016395	-0.53874730	-0.62239455	0.37716312	0.12482770	-1.16405535	1.91544906	0.61811128	2.72196996	1.09445135	1.73276869	-2.05819289	0.03573831	0.02713325	-0.13406652	0.30840911	-4.75788536	1.86926633
2922	29.21000000	-0.48185917	0.07451853	0.17521563	0.36253594	-0.00560845	0.14752071	0.08046618	-0.41042520	-0.60936766	0.78068287	0.13086511	-1.06132699	2.38197261	0.52054036	2.43721971	1.12150879	1.67145183	-1.76138005	0.02146398	0.01202137	-0.08002038	0.68256559	-3.81932339	2.09747508
2923	29.22000000	-0.52134670	0.08543475	0.19900628	0.30761149	-0.02138160	0.03293428	0.40361342	-0.30731777	-0.47389745	1.11646410	0.10641793	-1.02912270	2.39762943	0.51459778	1.97987228	1.08837635	1.50366539	-1.62454122	0.00001446	0.01655432	-0.03653056	0.64969970	-4.50938255	2.33500035
2924	29.23000000	-0.55600622	0.09248143	0.21797247	0.27688806	-0.03153672	-0.10429691	0.61073295	-0.21612508	-0.43983874	1.18487126	0.07621003	-1.00058254	2.18899920	0.53189080	1.43568778	1.00140089	1.30518361	-1.61250501	-0.00869549	0.00231151	-0.00184304	1.77513372	-4.23772860	2.37052627
2925	29.24000000	-0.57953362	0.09686327	0.22545761	0.27123066	-0.02905061	-0.23594876	0.53426957	-0.21431332	-0.31423924	1.10776864	0.07026566	-0.95063197	2.13851926	0.53184413	0.95356983	0.76663494	1.19483541	-1.54920913	-0.00787798	-0.00840255	0.02898255	4.59318210	1.61079760	2.51093183
2926	29.25000000	-0.60517929	0.10599484	0.22443838	0.25805063	-0.02407210	-0.35478637	0.25950543	-0.28260766	-0.30543868	0.96998884	0.07526901	-0.91505336	2.11882943	0.50254432	0.66596092	0.63818683	1.14081587	-1.55637899	-0.02334881	-0.01480131	0.04358054	1.97897196	2.75255262	2.42247365
2927	29.26000000	-0.62121538	0.11356681	0.22078290	0.24220669	-0.01019901	-0.43645486	-0.07631145	-0.33997941	-0.35576922	0.77357650	0.08582694	-0.89765669	1.97201302	0.17660173	0.56531813	0.57953566	1.04346358	-1.59308544	-0.04597982	-0.02249914	0.01671527	1.19530864	4.07898071	2.57555781
2928	29.27000000	-0.63392841	0.10595481	0.20190428	0.21972409	0.01129636	-0.48642290	-0.29426720	-0.34838715	-0.37093435	0.53283025	0.10483079	-0.90771448	1.95157156	-0.35142395	0.34699468	0.45689561	0.91072301	-1.60593260	-0.04748054	-0.04465188	-0.02347326	0.44070490	3.76708037	2.50068103
2929	29.28000000	-0.64717843	0.08760396	0.17806806	0.21739451	0.02793053	-0.50525800	-0.37427217	-0.32783552	-0.35604362	0.28924561	0.12043106	-0.93180269	2.23147323	-0.78132157	-0.11032997	0.39565831	0.76508703	-1.60063747	-0.03314974	-0.05032619	-0.05696288	-0.21924984	3.53390310	2.27450410
2930	29.29000000	-0.65449285	0.07305335	0.14266152	0.20493565	0.04175645	-0.49928942	-0.35030761	-0.33522688	-0.32883268	0.06394193	0.12946871	-0.95444781	2.56521078	-1.06829503	-0.67997961	0.32278211	0.61776845	-1.56411229	-0.03039610	-0.04866546	-0.08597354	0.03488324	3.44719085	1.78594611
2931	29.30000000	-0.64796403	0.06547491	0.09949696	0.18038493	0.05036431	-0.48504912	-0.28784074	-0.32903713	-0.29177521	-0.16126663	0.14721032	-0.97922100	2.60327994	-1.20892768	-1.22565161	0.13415655	0.52668128	-1.50081944	-0.02713511	-0.06424832	-0.09650359	0.05653856	3.58504070	1.13654732
2932	29.31000000	-0.63336215	0.06567020	0.06145901	0.16649653	0.05571945	-0.46551318	-0.14607777	-0.29535538	-0.25208877	-0.35478562	0.16748938	-1.00301724	2.24995557	-1.23113788	-1.65724224	-0.08047151	0.41982952	-1.43621385	-0.01935165	-0.05198110	-0.09015732	0.12046460	3.85302083	0.45802214
2933	29.32000000	-0.60610566	0.06839887	0.03914286	0.15095963	0.06500373	-0.44234149	0.00980883	-0.25951679	-0.24189177	-0.47855672	0.17974012	-1.01469722	1.58669867	-1.19415227	-1.99289018	-0.23743040	0.28867718	-1.35468095	-0.01404940	-0.04335720	-0.09341675	0.01837529	4.14720631	-0.17247901
2934	29.33000000	-0.57228402	0.06656950	0.02848559	0.13019939	0.08324129	-0.42504705	0.08495949	-0.24081219	-0.26246937	-0.50779242	0.19375350	-1.01084320	0.60277479	-1.14316200	-2.28367608	-0.49355245	0.24819070	-1.20233129	-0.00875975	-0.05040967	-0.09001663	-0.10049642	4.31218796	-0.71143558
2935	29.34000000	-0.53617739	0.06680349	0.02600680	0.12823574	0.10016341	-0.40491928	0.07873895	-0.23903216	-0.28990739	-0.47548022	0.20324812	-0.99516783	-0.76877988	-1.16374173	-2.57018544	-0.72574149	0.19799762	-1.04407879	0.00035951	-0.05797940	-0.07744369	-0.08025380	4.24815457	-1.15282728
2936	29.35000000	-0.50054428	0.06206582	0.02584907	0.13078268	0.11627098	-0.37504577	0.03906343	-0.23915856	-0.29282457	-0.44734107	0.21577528	-0.96209268	-2.64548398	-1.31463520	-2.80400735	-0.94731891	0.14210200	-0.87541259	0.00821431	-0.03720117	-0.06447404	0.10199755	4.06546563	-1.50911580
2937	29.36000000	-0.46404532	0.06094962	0.03261185	0.12867757	0.13827872	-0.33642971	0.00856248	-0.23182105	-0.28819247	-0.43441845	0.24097194	-0.92733901	-4.56547374	-1.47731949	-3.05564315	-1.12438273	0.06940473	-0.72072949	0.00138686	-0.02550131	-0.06489789	0.37033080	3.90355166	-1.81528125
2938	29.37000000	-0.42315562	0.05372757	0.02741621	0.12482361	0.15745132	-0.29148495	0.02105406	-0.24720565	-0.25275259	-0.39502994	0.26184485	-0.90781346	-5.42720413	-1.43202404	-3.38212490	-1.23216520	0.01025130	-0.57961703	-0.00212348	-0.03638024	-0.07219825	0.56450790	3.70843424	-2.12596746
2939	29.38000000	-0.39090278	0.04800996	0.02689828	0.11899927	0.16934795	-0.26100569	-0.02852332	-0.26733737	-0.24352873	-0.34899561	0.25915307	-0.89645251	-4.72451893	-1.08817933	-3.72361569	-1.26904993	-0.02481425	-0.45629529	-0.00157322	-0.04347567	-0.07638658	0.60820797	3.44870186	-2.44856869
2940	29.39000000	-0.35606000	0.04763539	0.02999820	0.12857751	0.16838942	-0.22543731	-0.08734788	-0.24329267	-0.30787599	-0.32708154	0.26757037	-0.89013226	-3.33671232	-0.79187432	-3.99442027	-1.24134226	-0.03636891	-0.34034134	-0.01090452	-0.02963254	-0.07978891	0.47685298	3.30970603	-2.67906837
2941	29.40000000	-0.31709968	0.04953430	0.01542837	0.13541145	0.16999604	-0.19744174	-0.07584999	-0.23975636	-0.30911163	-0.26422412	0.28010059	-0.88819490	-1.95630861	-0.95848355	-4.23719785	-1.15469612	-0.03448783	-0.25333706	-0.02013482	-0.03204313	-0.07951838	0.39219676	3.42286540	-2.71319214
2942	29.41000000	-0.27687610	0.07106832	0.00586270	0.13178488	0.15875997	-0.18682018	-0.04243163	-0.23638132	-0.33401767	-0.15141334	0.28783758	-0.89531984	-0.73821898	-1.46419665	-4.43987215	-0.96664684	-0.06709745	-0.19867444	-0.02727265	-0.01825483	-0.04977628	0.39151570	3.63062749	-2.63316344
2943	29.42000000	-0.23643956	0.09498615	-0.00053224	0.12682373	0.13637434	-0.16566341	-0.06731490	-0.24299902	-0.33138102	-0.05026900	0.29151350	-0.90005461	-0.21794535	-1.66755472	-4.50842138	-0.63180139	-0.12462810	-0.16022741	-0.03378644	-0.01602462	-0.02290049	0.52616075	3.78001513	-2.50686861
